<svg xmlns="http://www.w3.org/2000/svg" width="200" height="200" viewBox="0 0 200 200" version="1.1"><path d="M 75.607 60.582 C 74.704 62.936, 74.873 67, 75.875 67 C 76.635 67, 78 62.422, 78 59.875 C 78 58.392, 76.249 58.909, 75.607 60.582 M 40.004 60.750 C 40.011 62.214, 43.987 68, 44.985 68 C 46.440 68, 46.274 67.395, 43.750 63.498 C 41.642 60.244, 39.995 59.036, 40.004 60.750 M 72 71 C 72 72.100, 72.450 73, 73 73 C 73.550 73, 74 72.100, 74 71 C 74 69.900, 73.550 69, 73 69 C 72.450 69, 72 69.900, 72 71 M 94.441 70.468 C 92.677 71.803, 93.228 71.956, 100.500 72.157 C 107.669 72.355, 107.877 72.411, 102.500 72.696 C 95.007 73.094, 92 73.759, 92 75.019 C 92 75.559, 95.037 76.081, 98.750 76.180 L 105.500 76.360 98.079 76.930 C 93.466 77.284, 90.501 77.973, 90.245 78.750 C 89.944 79.663, 91.808 80.049, 97.167 80.183 L 104.500 80.367 96.579 80.933 C 91.204 81.318, 88.514 81.935, 88.211 82.854 C 87.864 83.905, 88.914 84.129, 92.882 83.854 C 95.698 83.660, 98.001 83.856, 98.001 84.291 C 98 84.725, 99.688 85.010, 101.750 84.923 C 103.813 84.836, 108.537 85.105, 112.250 85.521 C 117.912 86.154, 119 86.035, 119 84.780 C 119 83.860, 117.363 82.858, 114.750 82.177 L 110.500 81.070 114.250 81.472 C 118.781 81.958, 119.621 79.399, 115.250 78.426 C 110.290 77.322, 108.843 76.824, 109.293 76.374 C 109.537 76.130, 111.595 76.348, 113.868 76.859 C 117.051 77.574, 118 77.492, 118 76.501 C 118 75.067, 115.831 74, 112.918 74 C 111.863 74, 111 73.640, 111 73.201 C 111 72.761, 112.631 72.592, 114.625 72.825 C 117.375 73.146, 118.139 72.917, 117.793 71.878 C 116.837 69.011, 97.881 67.866, 94.441 70.468 M 45.664 72.735 C 45.311 73.306, 45.703 74.338, 46.535 75.029 C 48.588 76.733, 49.290 75.780, 47.642 73.526 C 46.823 72.405, 46.057 72.099, 45.664 72.735 M 121.491 75.014 C 120.389 76.798, 123.010 87, 124.571 87 C 125.357 87, 126 86.325, 126 85.500 C 126 84.675, 125.438 83.993, 124.750 83.985 C 123.911 83.974, 123.993 83.639, 125 82.966 C 126.307 82.091, 126.269 81.785, 124.697 80.582 C 123.343 79.546, 123.218 79.068, 124.197 78.664 C 125.188 78.254, 125.085 77.788, 123.766 76.714 C 122.812 75.938, 122.324 75.009, 122.682 74.651 C 123.040 74.293, 123.060 74, 122.726 74 C 122.391 74, 121.836 74.456, 121.491 75.014 M 78.750 89.750 C 74.147 94.427, 74.059 94.639, 73.046 103.500 C 71.225 119.424, 71.499 121.825, 75.793 127.500 C 80.130 133.233, 78.837 132.897, 104.822 135.027 L 120.144 136.283 124.940 131.559 L 129.736 126.835 130.868 116.882 C 132.705 100.730, 132.546 99.405, 128.060 93.464 C 123.624 87.588, 124.944 87.965, 102 86.001 C 83.552 84.422, 84.077 84.338, 78.750 89.750 M 28 88.933 C 28 90.099, 31.922 91.411, 32.796 90.537 C 33.546 89.787, 31.085 88.038, 29.250 88.015 C 28.563 88.007, 28 88.420, 28 88.933 M 38 88.765 C 38 89.828, 40.148 92, 41.200 92 C 42.752 92, 41.975 90.057, 40 89 C 38.900 88.411, 38 88.305, 38 88.765 M 127.609 90.250 C 128.008 90.938, 129.594 93.300, 131.133 95.500 L 133.931 99.500 132.623 113.306 L 131.315 127.112 126.445 132.056 C 120.187 138.409, 121.973 138.474, 129.035 132.149 L 134.450 127.299 134.334 119.641 C 134.270 115.430, 134.618 111.736, 135.109 111.433 C 135.599 111.130, 136 108.197, 136 104.915 C 136 99.590, 135.601 98.413, 132.287 93.974 C 130.244 91.238, 128.193 89, 127.728 89 C 127.262 89, 127.209 89.563, 127.609 90.250 M 86.500 91.933 C 88.700 92.412, 96.575 93.312, 104 93.932 C 111.425 94.552, 118.513 95.279, 119.750 95.549 C 120.987 95.818, 122 95.674, 122 95.228 C 122 94.519, 106.843 92.831, 88.500 91.498 C 83.297 91.120, 83.031 91.178, 86.500 91.933 M 76.172 96.696 C 74.754 99.369, 73.552 121.605, 74.784 122.367 C 76.279 123.291, 109.178 126.295, 119 126.405 L 127.500 126.500 128.701 114 C 129.742 103.158, 129.705 101.349, 128.418 100.366 C 127.601 99.742, 123.011 98.937, 118.217 98.579 C 113.423 98.220, 105.450 97.519, 100.500 97.022 C 78.059 94.766, 77.201 94.755, 76.172 96.696 M 77.702 96.632 C 77.316 97.018, 77 98.244, 77 99.358 C 77 101.235, 77.092 101.257, 78.265 99.652 C 79.638 97.774, 76.827 97.645, 114.500 101.327 L 126.500 102.500 127.087 108 L 127.674 113.500 127.837 107.295 L 128 101.091 124.750 100.579 C 122.963 100.298, 112.950 99.356, 102.500 98.487 C 92.050 97.617, 82.353 96.686, 80.952 96.418 C 79.550 96.149, 78.088 96.246, 77.702 96.632 M 76.310 107.500 C 76.315 110.800, 76.502 112.029, 76.725 110.232 C 76.947 108.435, 76.943 105.735, 76.715 104.232 C 76.486 102.729, 76.304 104.200, 76.310 107.500 M 151.751 105.750 C 150.984 111.908, 152.672 111.797, 153.674 105.624 C 154.028 103.440, 153.856 102, 153.240 102 C 152.678 102, 152.008 103.688, 151.751 105.750 M 41.269 110.693 C 42.242 110.947, 43.592 110.930, 44.269 110.656 C 44.946 110.382, 44.150 110.175, 42.500 110.195 C 40.850 110.215, 40.296 110.439, 41.269 110.693 M 135 114.500 C 135 116.189, 135.458 117.014, 136.250 116.750 C 136.938 116.521, 137.500 115.508, 137.500 114.500 C 137.500 113.492, 136.938 112.479, 136.250 112.250 C 135.458 111.986, 135 112.811, 135 114.500 M 34 114 C 32.667 114.862, 32.667 114.969, 34 114.969 C 34.825 114.969, 36.175 114.533, 37 114 C 38.333 113.138, 38.333 113.031, 37 113.031 C 36.175 113.031, 34.825 113.467, 34 114 M 75.150 117.281 C 75.061 119.527, 75.508 121.239, 76.250 121.497 C 77.450 121.914, 121.157 126, 124.416 126 C 125.287 126, 126 125.339, 126 124.531 C 126 123.602, 125.418 123.286, 124.416 123.671 C 122.527 124.395, 81.455 121.030, 78.321 119.894 C 76.975 119.406, 75.982 118.034, 75.721 116.302 C 75.376 114.004, 75.273 114.181, 75.150 117.281 M 126.272 118 C 126.272 120.475, 126.467 121.487, 126.706 120.250 C 126.944 119.013, 126.944 116.987, 126.706 115.750 C 126.467 114.513, 126.272 115.525, 126.272 118 M 80 127.048 C 80 127.403, 86.580 128.241, 94.621 128.909 C 102.663 129.576, 111.551 130.383, 114.371 130.702 C 117.192 131.020, 119.212 130.966, 118.860 130.583 C 118.507 130.199, 111.082 129.240, 102.360 128.450 C 93.637 127.660, 85.037 126.876, 83.250 126.708 C 81.463 126.539, 80 126.692, 80 127.048 M 174.443 129.418 C 173.376 130.198, 172.727 131.046, 173.002 131.302 C 173.812 132.058, 178 130.156, 178 129.032 C 178 127.605, 176.735 127.742, 174.443 129.418 M 167.500 134 C 167.160 134.550, 167.809 135, 168.941 135 C 170.073 135, 171 134.550, 171 134 C 171 133.450, 170.352 133, 169.559 133 C 168.766 133, 167.840 133.450, 167.500 134 M 85.192 136.076 C 85.449 136.847, 88.301 138.009, 91.578 138.679 L 97.500 139.889 91.750 139.373 C 88.366 139.069, 86 139.253, 86 139.821 C 86 141.001, 88.416 141.995, 91.332 142.015 C 92.524 142.024, 94.175 142.471, 95 143.009 C 96.025 143.677, 94.918 143.789, 91.500 143.364 C 87.370 142.849, 86.717 142.972, 87.747 144.067 C 89.906 146.364, 112 148.125, 112 146 C 112 145.450, 109.552 145, 106.559 145 C 103.566 145, 100.836 144.543, 100.491 143.985 C 100.087 143.332, 101.904 143.064, 105.575 143.235 C 113.240 143.591, 114.395 141.267, 106.815 140.740 L 101.500 140.370 107.250 140.185 C 111.346 140.053, 113 139.608, 113 138.638 C 113 137.183, 109.386 136.573, 93.614 135.365 C 86.254 134.801, 84.808 134.923, 85.192 136.076 M 115.499 142.004 C 115.127 144.207, 114.413 145.755, 113.911 145.445 C 113.410 145.135, 113 145.359, 113 145.941 C 113 147.250, 114.035 147.270, 116 146 C 116.825 145.467, 117.050 145.010, 116.500 144.985 C 115.950 144.960, 116.269 144.491, 117.208 143.943 C 118.151 143.394, 118.663 142.286, 118.351 141.474 C 118.040 140.663, 118.284 140, 118.893 140 C 119.502 140, 120 139.550, 120 139 C 120 138.450, 119.140 138, 118.088 138 C 116.636 138, 116.013 138.964, 115.499 142.004" stroke="none" fill="#e7cd1f" fill-rule="evenodd"/><path d="M 37.301 45.750 C 37.615 49.462, 38.180 53.519, 38.556 54.765 C 39.106 56.585, 38.923 56.908, 37.621 56.408 C 36.729 56.066, 36 56.004, 36 56.271 C 36 57.357, 39.040 63.685, 40.839 66.344 C 41.897 67.908, 42.560 69.965, 42.312 70.914 C 42.050 71.917, 43.126 73.994, 44.879 75.871 C 46.540 77.648, 47.673 79.688, 47.399 80.403 C 47.124 81.119, 48.464 83.079, 50.377 84.758 C 52.290 86.438, 53.550 88.123, 53.178 88.503 C 52.805 88.884, 54.075 90.559, 56 92.225 C 59.379 95.150, 59.396 95.200, 56.500 93.659 C 51.247 90.864, 45.571 88.669, 43.254 88.536 C 42.018 88.465, 40.466 87.866, 39.804 87.204 C 38.384 85.784, 35 85.591, 35 86.930 C 35 87.504, 33.757 87.504, 31.757 86.930 C 26.583 85.446, 23.867 85.735, 24.206 87.732 C 24.450 89.167, 23.400 89.589, 18.093 90.189 C 14.570 90.587, 11.256 91.344, 10.729 91.871 C 9.682 92.918, 13.579 95.259, 18.215 96.370 C 20.079 96.817, 20.750 97.487, 20.358 98.510 C 19.898 99.709, 20.773 100, 24.834 100 C 27.610 100, 30.192 100.502, 30.571 101.115 C 30.990 101.792, 32.979 102.037, 35.630 101.738 C 38.054 101.465, 40 101.666, 40 102.190 C 40 102.710, 41.688 103.026, 43.750 102.892 C 50.648 102.446, 54.661 102.927, 53 104 C 52.175 104.533, 50.295 104.976, 48.821 104.985 C 47.348 104.993, 45.537 105.606, 44.796 106.347 C 44.056 107.087, 41.774 108.007, 39.725 108.392 C 37.676 108.776, 36 109.509, 36 110.020 C 36 110.531, 34.621 111.662, 32.936 112.533 C 31.251 113.404, 30.038 114.613, 30.240 115.219 C 30.442 115.825, 29.570 117.439, 28.304 118.807 C 24.567 122.838, 25.817 124.161, 31.368 122.050 C 33.146 121.374, 33.989 121.446, 34.291 122.300 C 34.602 123.181, 35.483 123.070, 37.608 121.883 C 39.198 120.993, 41.077 120.473, 41.782 120.727 C 42.487 120.980, 44.287 120.374, 45.782 119.380 C 47.277 118.386, 49.239 117.688, 50.142 117.831 C 51.046 117.973, 52.673 116.959, 53.760 115.579 C 54.846 114.198, 56.016 113.350, 56.361 113.694 C 56.706 114.039, 57.778 113.606, 58.744 112.733 C 60.403 111.233, 60.511 111.564, 60.703 118.692 C 60.928 127.075, 61.503 128.451, 63.548 125.498 C 64.309 124.399, 65.510 122.847, 66.216 122.049 C 66.922 121.251, 68.026 119.451, 68.669 118.049 L 69.838 115.500 69.919 118.793 C 70.016 122.733, 76.621 132.215, 80.645 134.189 C 82.536 135.117, 83.706 136.849, 84.651 140.122 C 85.385 142.663, 86.551 145.210, 87.243 145.781 C 89.227 147.419, 111.507 149.559, 114.740 148.422 C 116.251 147.891, 118.390 146.021, 119.494 144.267 C 120.940 141.967, 122.267 141.066, 124.250 141.039 C 125.763 141.017, 127 141.450, 127 142 C 127 142.550, 128.463 143.032, 130.250 143.070 C 133.370 143.138, 138.748 144.785, 136.321 144.930 C 135.672 144.968, 133.781 147.016, 132.118 149.481 L 129.093 153.962 132.797 153.638 C 136.170 153.343, 140.735 151.900, 143.290 150.321 C 144.248 149.729, 144.155 150.396, 142.391 156.750 C 142.023 158.078, 142.208 159, 142.845 159 C 143.438 159, 144.436 157.096, 145.062 154.769 L 146.202 150.537 147.738 153.469 C 148.583 155.082, 150.225 157.175, 151.387 158.121 C 153.444 159.795, 153.520 159.756, 154.235 156.670 C 154.639 154.927, 154.723 152.409, 154.422 151.075 C 153.952 148.996, 154.090 148.830, 155.393 149.911 C 156.229 150.605, 157.331 150.913, 157.843 150.597 C 158.355 150.281, 159.329 150.692, 160.009 151.511 C 160.689 152.330, 162 153, 162.922 153 C 163.845 153, 165.106 153.506, 165.725 154.125 C 166.503 154.903, 169.561 155.023, 175.649 154.516 L 184.449 153.783 181.725 151.439 C 180.226 150.151, 179 148.601, 179 147.996 C 179 147.391, 177.650 146.425, 176 145.850 C 174.350 145.275, 173 144.398, 173 143.902 C 173 143.406, 171.677 143, 170.059 143 C 168.441 143, 166.840 142.550, 166.500 142 C 166.160 141.450, 164.541 141, 162.902 141 C 160.523 141, 160.163 140.741, 161.118 139.719 C 161.801 138.988, 163.748 138.606, 165.657 138.829 C 167.536 139.048, 169 138.768, 169 138.189 C 169 137.622, 170.347 136.863, 171.994 136.501 C 173.641 136.140, 175.328 135.265, 175.744 134.557 C 176.160 133.850, 177.947 132.531, 179.716 131.628 C 181.484 130.724, 182.729 129.425, 182.481 128.742 C 182.234 128.059, 183.830 126.229, 186.029 124.676 C 191.121 121.078, 190.297 119.570, 183.715 120.443 C 180.125 120.920, 178.462 120.747, 177.902 119.842 C 177.284 118.841, 176.359 118.935, 173.525 120.287 C 171.549 121.229, 169.342 122, 168.621 122 C 167.900 122, 166.505 122.889, 165.521 123.976 C 164.538 125.063, 163.366 125.726, 162.917 125.449 C 162.468 125.171, 161.094 126.307, 159.862 127.972 C 158.631 129.637, 157.259 131, 156.812 131 C 155.500 131, 155.941 127.662, 157.532 125.559 C 158.339 124.491, 159 122.788, 159 121.774 C 159 120.759, 159.727 118.820, 160.616 117.463 C 161.505 116.106, 161.990 114.069, 161.693 112.936 C 161.397 111.802, 161.795 109.342, 162.577 107.469 C 164.324 103.290, 164.467 99.593, 162.844 100.596 C 162.007 101.114, 161.886 100.372, 162.408 97.905 C 164.065 90.077, 164.233 88, 163.209 88 C 162.044 88, 155 95.878, 155 97.180 C 155 97.631, 154.314 98, 153.475 98 C 151.765 98, 150 101.858, 150 105.596 C 150 106.953, 149.325 108.322, 148.500 108.638 C 147.482 109.029, 147 110.625, 147 113.607 C 147 116.147, 146.534 118, 145.895 118 C 145.209 118, 144.935 119.516, 145.171 122 C 145.381 124.200, 145.155 126, 144.668 126 C 144.181 126, 144.058 127.237, 144.394 128.750 C 144.872 130.900, 144.569 130.643, 143.003 127.571 C 141.901 125.411, 141 123.096, 141 122.428 C 141 121.760, 140.318 120.952, 139.484 120.632 C 138.329 120.189, 138.116 119.124, 138.592 116.151 C 138.953 113.895, 138.788 111.987, 138.203 111.625 C 137.601 111.254, 137.407 108.599, 137.725 105.093 C 138.253 99.273, 138.193 99.098, 133.572 93.094 C 130.993 89.742, 128.459 87, 127.942 87 C 127.424 87, 127 85.186, 127 82.968 C 127 77.127, 124.695 72.419, 120.829 70.362 C 116.855 68.249, 97.484 67.136, 94.303 68.838 C 93.224 69.415, 91.057 72.838, 89.487 76.444 C 87.615 80.742, 86.060 83, 84.971 83 C 84.057 83, 82.505 83.889, 81.521 84.976 C 80.538 86.063, 79.290 86.679, 78.748 86.344 C 78.207 86.010, 79.167 84.638, 80.882 83.295 C 82.597 81.953, 84.010 80.100, 84.022 79.178 C 84.034 78.255, 84.924 76.375, 86 75 C 88.081 72.340, 88.591 70, 87.091 70 C 86.591 70, 87.041 68.222, 88.091 66.048 C 90.410 61.248, 90.511 59.590, 88.435 60.387 C 87.291 60.826, 87.011 60.518, 87.397 59.244 C 88.099 56.929, 89.945 48.699, 89.976 47.750 C 90.048 45.540, 86.611 47.622, 82.578 52.233 C 79.333 55.942, 78 56.926, 78 55.610 C 78 52.287, 75.068 55.843, 73.864 60.627 C 73.261 63.019, 72.418 64.758, 71.989 64.493 C 70.944 63.847, 70 66.498, 70 70.082 C 70 71.687, 69.487 73, 68.861 73 C 68.081 73, 67.908 74.579, 68.314 78 C 68.639 80.750, 68.505 83, 68.016 83 C 67.527 83, 66.945 84.463, 66.723 86.250 C 66.337 89.362, 66.313 89.336, 66.160 85.643 C 66.038 82.703, 65.652 81.920, 64.534 82.349 C 63.398 82.784, 63.189 82.301, 63.607 80.206 C 64.247 76.992, 62.430 71.616, 61.002 72.499 C 60.417 72.860, 60 71.863, 60 70.106 C 60 66.042, 57.967 61.799, 56.322 62.430 C 55.595 62.709, 55 62.445, 55 61.844 C 55 60.038, 49.789 49, 48.937 49 C 48.502 49, 48 49.763, 47.820 50.696 C 47.612 51.774, 46.066 49.952, 43.577 45.696 C 38.348 36.756, 36.543 36.771, 37.301 45.750 M 75.607 60.582 C 74.704 62.936, 74.873 67, 75.875 67 C 76.635 67, 78 62.422, 78 59.875 C 78 58.392, 76.249 58.909, 75.607 60.582 M 40.004 60.750 C 40.011 62.214, 43.987 68, 44.985 68 C 46.440 68, 46.274 67.395, 43.750 63.498 C 41.642 60.244, 39.995 59.036, 40.004 60.750 M 72 71 C 72 72.100, 72.450 73, 73 73 C 73.550 73, 74 72.100, 74 71 C 74 69.900, 73.550 69, 73 69 C 72.450 69, 72 69.900, 72 71 M 94.441 70.468 C 92.677 71.803, 93.228 71.956, 100.500 72.157 C 107.669 72.355, 107.877 72.411, 102.500 72.696 C 95.007 73.094, 92 73.759, 92 75.019 C 92 75.559, 95.037 76.081, 98.750 76.180 L 105.500 76.360 98.079 76.930 C 93.466 77.284, 90.501 77.973, 90.245 78.750 C 89.944 79.663, 91.808 80.049, 97.167 80.183 L 104.500 80.367 96.579 80.933 C 91.204 81.318, 88.514 81.935, 88.211 82.854 C 87.864 83.905, 88.914 84.129, 92.882 83.854 C 95.698 83.660, 98.001 83.856, 98.001 84.291 C 98 84.725, 99.688 85.010, 101.750 84.923 C 103.813 84.836, 108.537 85.105, 112.250 85.521 C 117.912 86.154, 119 86.035, 119 84.780 C 119 83.860, 117.363 82.858, 114.750 82.177 L 110.500 81.070 114.250 81.472 C 118.781 81.958, 119.621 79.399, 115.250 78.426 C 110.290 77.322, 108.843 76.824, 109.293 76.374 C 109.537 76.130, 111.595 76.348, 113.868 76.859 C 117.051 77.574, 118 77.492, 118 76.501 C 118 75.067, 115.831 74, 112.918 74 C 111.863 74, 111 73.640, 111 73.201 C 111 72.761, 112.631 72.592, 114.625 72.825 C 117.375 73.146, 118.139 72.917, 117.793 71.878 C 116.837 69.011, 97.881 67.866, 94.441 70.468 M 45.664 72.735 C 45.311 73.306, 45.703 74.338, 46.535 75.029 C 48.588 76.733, 49.290 75.780, 47.642 73.526 C 46.823 72.405, 46.057 72.099, 45.664 72.735 M 121.491 75.014 C 120.389 76.798, 123.010 87, 124.571 87 C 125.357 87, 126 86.325, 126 85.500 C 126 84.675, 125.438 83.993, 124.750 83.985 C 123.911 83.974, 123.993 83.639, 125 82.966 C 126.307 82.091, 126.269 81.785, 124.697 80.582 C 123.343 79.546, 123.218 79.068, 124.197 78.664 C 125.188 78.254, 125.085 77.788, 123.766 76.714 C 122.812 75.938, 122.324 75.009, 122.682 74.651 C 123.040 74.293, 123.060 74, 122.726 74 C 122.391 74, 121.836 74.456, 121.491 75.014 M 78.750 89.750 C 74.147 94.427, 74.059 94.639, 73.046 103.500 C 71.225 119.424, 71.499 121.825, 75.793 127.500 C 80.130 133.233, 78.837 132.897, 104.822 135.027 L 120.144 136.283 124.940 131.559 L 129.736 126.835 130.868 116.882 C 132.705 100.730, 132.546 99.405, 128.060 93.464 C 123.624 87.588, 124.944 87.965, 102 86.001 C 83.552 84.422, 84.077 84.338, 78.750 89.750 M 28 88.933 C 28 90.099, 31.922 91.411, 32.796 90.537 C 33.546 89.787, 31.085 88.038, 29.250 88.015 C 28.563 88.007, 28 88.420, 28 88.933 M 38 88.765 C 38 89.828, 40.148 92, 41.200 92 C 42.752 92, 41.975 90.057, 40 89 C 38.900 88.411, 38 88.305, 38 88.765 M 127.609 90.250 C 128.008 90.938, 129.594 93.300, 131.133 95.500 L 133.931 99.500 132.623 113.306 L 131.315 127.112 126.445 132.056 C 120.187 138.409, 121.973 138.474, 129.035 132.149 L 134.450 127.299 134.334 119.641 C 134.270 115.430, 134.618 111.736, 135.109 111.433 C 135.599 111.130, 136 108.197, 136 104.915 C 136 99.590, 135.601 98.413, 132.287 93.974 C 130.244 91.238, 128.193 89, 127.728 89 C 127.262 89, 127.209 89.563, 127.609 90.250 M 86.500 91.933 C 88.700 92.412, 96.575 93.312, 104 93.932 C 111.425 94.552, 118.513 95.279, 119.750 95.549 C 120.987 95.818, 122 95.674, 122 95.228 C 122 94.519, 106.843 92.831, 88.500 91.498 C 83.297 91.120, 83.031 91.178, 86.500 91.933 M 76.172 96.696 C 74.754 99.369, 73.552 121.605, 74.784 122.367 C 76.279 123.291, 109.178 126.295, 119 126.405 L 127.500 126.500 128.701 114 C 129.742 103.158, 129.705 101.349, 128.418 100.366 C 127.601 99.742, 123.011 98.937, 118.217 98.579 C 113.423 98.220, 105.450 97.519, 100.500 97.022 C 78.059 94.766, 77.201 94.755, 76.172 96.696 M 77.702 96.632 C 77.316 97.018, 77 98.244, 77 99.358 C 77 101.235, 77.092 101.257, 78.265 99.652 C 79.638 97.774, 76.827 97.645, 114.500 101.327 L 126.500 102.500 127.087 108 L 127.674 113.500 127.837 107.295 L 128 101.091 124.750 100.579 C 122.963 100.298, 112.950 99.356, 102.500 98.487 C 92.050 97.617, 82.353 96.686, 80.952 96.418 C 79.550 96.149, 78.088 96.246, 77.702 96.632 M 76.310 107.500 C 76.315 110.800, 76.502 112.029, 76.725 110.232 C 76.947 108.435, 76.943 105.735, 76.715 104.232 C 76.486 102.729, 76.304 104.200, 76.310 107.500 M 151.751 105.750 C 150.984 111.908, 152.672 111.797, 153.674 105.624 C 154.028 103.440, 153.856 102, 153.240 102 C 152.678 102, 152.008 103.688, 151.751 105.750 M 90.079 105.583 C 90.127 106.748, 90.364 106.985, 90.683 106.188 C 90.972 105.466, 90.936 104.603, 90.604 104.271 C 90.272 103.939, 90.036 104.529, 90.079 105.583 M 120.750 106.662 C 121.438 106.940, 122.563 106.940, 123.250 106.662 C 123.938 106.385, 123.375 106.158, 122 106.158 C 120.625 106.158, 120.063 106.385, 120.750 106.662 M 117.079 109.583 C 117.127 110.748, 117.364 110.985, 117.683 110.188 C 117.972 109.466, 117.936 108.603, 117.604 108.271 C 117.272 107.939, 117.036 108.529, 117.079 109.583 M 123.079 109.583 C 123.127 110.748, 123.364 110.985, 123.683 110.188 C 123.972 109.466, 123.936 108.603, 123.604 108.271 C 123.272 107.939, 123.036 108.529, 123.079 109.583 M 41.269 110.693 C 42.242 110.947, 43.592 110.930, 44.269 110.656 C 44.946 110.382, 44.150 110.175, 42.500 110.195 C 40.850 110.215, 40.296 110.439, 41.269 110.693 M 91.250 110.689 C 92.213 110.941, 93.787 110.941, 94.750 110.689 C 95.713 110.438, 94.925 110.232, 93 110.232 C 91.075 110.232, 90.287 110.438, 91.250 110.689 M 80.079 113.583 C 80.127 114.748, 80.364 114.985, 80.683 114.188 C 80.972 113.466, 80.936 112.603, 80.604 112.271 C 80.272 111.939, 80.036 112.529, 80.079 113.583 M 86.079 113.583 C 86.127 114.748, 86.364 114.985, 86.683 114.188 C 86.972 113.466, 86.936 112.603, 86.604 112.271 C 86.272 111.939, 86.036 112.529, 86.079 113.583 M 135 114.500 C 135 116.189, 135.458 117.014, 136.250 116.750 C 136.938 116.521, 137.500 115.508, 137.500 114.500 C 137.500 113.492, 136.938 112.479, 136.250 112.250 C 135.458 111.986, 135 112.811, 135 114.500 M 34 114 C 32.667 114.862, 32.667 114.969, 34 114.969 C 34.825 114.969, 36.175 114.533, 37 114 C 38.333 113.138, 38.333 113.031, 37 113.031 C 36.175 113.031, 34.825 113.467, 34 114 M 75.150 117.281 C 75.061 119.527, 75.508 121.239, 76.250 121.497 C 77.450 121.914, 121.157 126, 124.416 126 C 125.287 126, 126 125.339, 126 124.531 C 126 123.602, 125.418 123.286, 124.416 123.671 C 122.527 124.395, 81.455 121.030, 78.321 119.894 C 76.975 119.406, 75.982 118.034, 75.721 116.302 C 75.376 114.004, 75.273 114.181, 75.150 117.281 M 126.272 118 C 126.272 120.475, 126.467 121.487, 126.706 120.250 C 126.944 119.013, 126.944 116.987, 126.706 115.750 C 126.467 114.513, 126.272 115.525, 126.272 118 M 80.750 116.662 C 81.438 116.940, 82.563 116.940, 83.250 116.662 C 83.938 116.385, 83.375 116.158, 82 116.158 C 80.625 116.158, 80.063 116.385, 80.750 116.662 M 80 127.048 C 80 127.403, 86.580 128.241, 94.621 128.909 C 102.663 129.576, 111.551 130.383, 114.371 130.702 C 117.192 131.020, 119.212 130.966, 118.860 130.583 C 118.507 130.199, 111.082 129.240, 102.360 128.450 C 93.637 127.660, 85.037 126.876, 83.250 126.708 C 81.463 126.539, 80 126.692, 80 127.048 M 174.443 129.418 C 173.376 130.198, 172.727 131.046, 173.002 131.302 C 173.812 132.058, 178 130.156, 178 129.032 C 178 127.605, 176.735 127.742, 174.443 129.418 M 131.593 131.849 C 131.304 132.316, 132.290 133.308, 133.784 134.052 C 135.278 134.797, 136.914 135.613, 137.421 135.867 C 137.927 136.121, 137.477 135.144, 136.421 133.696 C 134.478 131.032, 132.553 130.296, 131.593 131.849 M 167.500 134 C 167.160 134.550, 167.809 135, 168.941 135 C 170.073 135, 171 134.550, 171 134 C 171 133.450, 170.352 133, 169.559 133 C 168.766 133, 167.840 133.450, 167.500 134 M 85.192 136.076 C 85.449 136.847, 88.301 138.009, 91.578 138.679 L 97.500 139.889 91.750 139.373 C 88.366 139.069, 86 139.253, 86 139.821 C 86 141.001, 88.416 141.995, 91.332 142.015 C 92.524 142.024, 94.175 142.471, 95 143.009 C 96.025 143.677, 94.918 143.789, 91.500 143.364 C 87.370 142.849, 86.717 142.972, 87.747 144.067 C 89.906 146.364, 112 148.125, 112 146 C 112 145.450, 109.552 145, 106.559 145 C 103.566 145, 100.836 144.543, 100.491 143.985 C 100.087 143.332, 101.904 143.064, 105.575 143.235 C 113.240 143.591, 114.395 141.267, 106.815 140.740 L 101.500 140.370 107.250 140.185 C 111.346 140.053, 113 139.608, 113 138.638 C 113 137.183, 109.386 136.573, 93.614 135.365 C 86.254 134.801, 84.808 134.923, 85.192 136.076 M 115.499 142.004 C 115.127 144.207, 114.413 145.755, 113.911 145.445 C 113.410 145.135, 113 145.359, 113 145.941 C 113 147.250, 114.035 147.270, 116 146 C 116.825 145.467, 117.050 145.010, 116.500 144.985 C 115.950 144.960, 116.269 144.491, 117.208 143.943 C 118.151 143.394, 118.663 142.286, 118.351 141.474 C 118.040 140.663, 118.284 140, 118.893 140 C 119.502 140, 120 139.550, 120 139 C 120 138.450, 119.140 138, 118.088 138 C 116.636 138, 116.013 138.964, 115.499 142.004" stroke="none" fill="#2c5c0c" fill-rule="evenodd"/></svg>