<?xml version="1.0" standalone="no"?>
<!DOCTYPE svg PUBLIC "-//W3C//DTD SVG 20010904//EN"
 "http://www.w3.org/TR/2001/REC-SVG-20010904/DTD/svg10.dtd">
<svg version="1.0" xmlns="http://www.w3.org/2000/svg"
 width="256.000000pt" height="256.000000pt" viewBox="0 0 256.000000 256.000000"
 preserveAspectRatio="xMidYMid meet">
<metadata>
Created by potrace 1.16, written by Peter Selinger 2001-2019
</metadata>
<g transform="translate(0.000000,256.000000) scale(0.100000,-0.100000)"
fill="#000000" stroke="none">
<path d="M472 1983 c3 -54 9 -106 13 -115 5 -14 2 -18 -14 -18 -16 0 -21 -6
-21 -25 0 -14 4 -25 10 -25 5 0 18 -19 29 -42 11 -24 28 -53 37 -65 9 -13 12
-23 6 -23 -21 0 8 -65 44 -97 19 -18 30 -33 25 -33 -23 0 -9 -32 29 -67 22
-21 40 -45 40 -54 0 -10 6 -20 13 -23 6 -3 -1 -2 -18 1 -16 3 -42 15 -57 26
-15 12 -35 17 -47 14 -12 -3 -31 3 -45 14 -25 20 -76 26 -76 9 0 -5 -9 -10
-20 -10 -11 0 -20 5 -20 10 0 6 -22 10 -49 10 -44 0 -50 -3 -53 -22 -3 -20
-10 -23 -53 -26 -27 -1 -59 -6 -70 -11 -11 -5 -28 -12 -38 -15 -27 -9 -16 -38
18 -49 17 -6 32 -13 35 -17 3 -5 16 -10 30 -11 17 -3 26 -11 28 -26 3 -21 9
-23 68 -23 40 0 64 -4 64 -11 0 -8 21 -10 64 -7 42 2 64 0 63 -7 -3 -15 62
-18 80 -3 13 10 17 10 20 1 3 -7 17 -13 31 -14 34 -1 20 -6 -41 -14 -26 -3
-45 -10 -42 -16 4 -5 -7 -9 -24 -9 -16 0 -33 -4 -36 -10 -3 -5 -15 -10 -26
-10 -10 0 -19 -5 -19 -10 0 -6 -16 -20 -35 -31 -19 -12 -35 -28 -35 -36 0 -8
-13 -32 -30 -53 -16 -21 -30 -43 -30 -49 0 -7 26 -9 78 -6 112 5 164 16 191
36 13 11 35 19 48 19 13 0 35 12 50 28 14 15 32 26 40 24 8 -2 20 4 26 12 10
13 13 -4 15 -76 1 -51 5 -94 7 -96 12 -13 53 11 59 33 4 16 13 25 26 25 14 0
20 9 23 33 l4 32 1 -35 c1 -23 13 -47 32 -70 16 -19 30 -38 30 -41 0 -17 57
-69 76 -69 24 0 40 -26 53 -87 14 -66 31 -76 145 -91 189 -25 225 -25 262 -6
18 10 38 28 45 41 7 13 16 23 21 23 4 0 8 7 8 15 0 10 10 15 30 15 20 0 30 -5
30 -15 0 -11 11 -15 38 -16 20 0 46 -4 57 -8 19 -8 19 -8 -3 -15 -15 -5 -25
-18 -29 -38 -3 -16 -14 -35 -24 -41 -11 -7 -19 -17 -19 -24 0 -17 116 -15 133
2 7 7 22 15 34 19 20 6 21 5 12 -31 -12 -55 -11 -63 11 -63 14 0 21 9 26 34 8
45 31 54 39 15 4 -16 13 -29 21 -29 7 0 19 -9 26 -20 7 -11 18 -20 24 -20 13
0 29 114 18 133 -5 9 -4 9 7 0 7 -7 20 -13 28 -13 8 0 23 -7 32 -16 10 -9 29
-18 41 -21 87 -15 145 -19 160 -12 9 5 37 9 62 9 55 0 59 15 16 50 -16 14 -29
33 -30 42 0 11 -13 21 -40 28 -24 6 -40 17 -40 25 0 11 -12 15 -39 15 -22 0
-43 5 -46 10 -3 6 -17 10 -31 10 -13 0 -24 3 -24 8 0 4 20 6 45 4 36 -3 45 -1
45 12 0 11 13 18 41 22 26 5 43 13 46 23 2 9 23 26 46 37 31 15 42 26 42 43 0
13 10 28 21 34 48 27 76 57 70 73 -6 14 -17 16 -76 10 -45 -4 -70 -2 -70 4 0
15 -51 12 -80 -5 -14 -8 -36 -14 -49 -15 -13 0 -31 -8 -40 -18 -9 -11 -27 -22
-41 -25 -17 -4 -32 -19 -43 -42 -9 -19 -20 -35 -25 -35 -14 0 -11 41 3 47 8 2
17 21 21 41 4 20 16 51 27 69 12 22 18 45 14 66 -4 33 9 87 25 98 15 10 5 74
-10 71 -10 -2 -12 6 -7 30 4 18 11 37 16 43 5 5 9 26 9 47 0 32 -3 38 -21 38
-25 0 -80 -55 -98 -98 -8 -18 -21 -32 -34 -34 -28 -4 -47 -42 -47 -95 0 -36
-3 -43 -20 -43 -18 0 -20 -7 -20 -55 0 -33 -4 -55 -11 -55 -7 0 -10 -20 -7
-55 1 -30 0 -55 -4 -55 -24 0 -38 16 -38 41 0 20 -5 29 -16 29 -8 0 -12 4 -9
10 3 5 1 10 -6 10 -10 0 -10 3 -1 12 14 14 16 78 2 78 -6 0 -10 34 -10 83 0
61 -4 89 -18 108 -9 15 -30 45 -45 68 -15 23 -34 44 -42 48 -8 3 -15 16 -15
28 0 13 -4 27 -10 30 -5 3 -10 19 -10 34 0 72 -46 136 -106 147 -19 3 -37 10
-40 15 -3 5 -67 9 -143 9 -119 0 -140 -2 -152 -17 -18 -21 -79 -148 -79 -163
0 -5 -10 -10 -22 -10 -20 0 -20 1 -5 18 13 14 14 21 5 30 -9 9 -9 12 0 12 19
0 45 60 39 90 -4 17 1 37 14 56 23 35 26 84 4 84 -9 0 -15 9 -15 25 0 14 4 25
9 25 5 0 12 23 15 52 5 38 3 55 -7 65 -12 13 -21 8 -64 -34 -28 -26 -53 -57
-57 -68 -7 -19 -8 -19 -17 -2 -23 39 -53 11 -69 -66 -8 -39 -15 -54 -24 -51
-16 6 -26 -25 -26 -78 0 -27 -4 -38 -15 -38 -19 0 -22 -96 -2 -103 9 -4 8 -8
-3 -16 -9 -6 -16 -7 -18 -1 -2 6 -9 10 -16 10 -7 0 -10 14 -8 40 2 22 0 40 -6
40 -5 0 -13 11 -16 25 -4 14 -11 23 -16 20 -6 -4 -10 11 -10 34 0 23 -4 41 -9
41 -5 0 -12 13 -16 30 -8 35 -24 48 -35 29 -6 -9 -13 2 -21 34 -6 26 -15 47
-19 47 -4 0 -13 18 -20 40 -15 45 -49 57 -51 18 -1 -21 -2 -21 -6 -3 -3 11 -9
22 -13 25 -4 3 -16 23 -28 45 -23 46 -66 95 -83 95 -8 0 -10 -26 -7 -97z m92
-79 c28 -60 43 -72 60 -49 10 14 16 6 42 -62 23 -61 34 -78 49 -78 16 0 21
-10 28 -54 8 -56 23 -85 38 -75 6 3 8 -23 7 -63 -3 -58 -1 -68 13 -67 13 1 19
-15 29 -72 6 -41 16 -77 22 -80 16 -10 38 25 38 58 0 21 4 28 17 26 11 -2 19
7 25 30 7 28 12 31 23 22 12 -10 8 -22 -27 -73 -34 -50 -39 -63 -29 -78 15
-26 14 -49 -4 -49 -7 0 -18 -6 -22 -13 -10 -17 -48 1 -48 23 0 12 -17 16 -82
18 -65 2 -83 6 -83 17 0 19 -23 19 -62 -1 -25 -13 -35 -14 -53 -4 -13 7 -41
11 -64 8 -29 -2 -41 0 -41 9 0 9 -18 13 -61 13 -35 0 -58 4 -54 9 3 6 -3 15
-12 21 -14 8 -2 9 47 4 108 -9 220 -24 307 -40 46 -8 87 -13 92 -10 5 4 21 2
36 -4 21 -8 27 -7 32 7 4 11 -11 31 -52 68 -42 37 -55 54 -45 58 15 6 11 10
-63 68 -20 15 -25 24 -17 29 17 10 -4 47 -30 55 -22 7 -58 65 -40 65 18 0 11
19 -30 72 -42 56 -51 88 -24 88 12 0 15 6 10 23 -24 86 -19 78 166 -283 86
-167 109 -202 116 -179 4 10 -142 305 -197 397 -17 29 -31 55 -31 57 0 2 -14
33 -30 69 -36 76 -56 97 -47 45 5 -24 4 -30 -3 -19 -5 8 -10 35 -10 60 l0 45
21 -30 c11 -16 31 -53 43 -81z m532 -75 c-20 -50 -20 -79 -1 -79 20 0 19 -6
-6 -46 -14 -23 -19 -43 -14 -62 4 -22 0 -33 -20 -52 -14 -13 -25 -33 -25 -45
0 -15 -14 -31 -42 -50 -31 -20 -39 -23 -35 -10 4 9 16 51 28 93 12 42 25 86
30 97 40 95 49 132 29 120 -23 -14 -8 21 27 64 29 35 39 41 41 28 2 -10 -3
-36 -12 -58z m334 -158 c19 -5 47 -12 62 -15 19 -4 25 -11 22 -21 -4 -11 -18
-13 -52 -9 -49 5 -36 -8 21 -20 15 -4 27 -13 27 -21 0 -17 -10 -18 -62 -6 -21
5 -38 5 -38 1 0 -9 14 -14 68 -25 23 -5 32 -12 32 -26 0 -15 -5 -19 -17 -16
-50 14 -73 17 -73 9 0 -5 21 -13 47 -18 35 -6 49 -14 51 -28 4 -18 -1 -19 -79
-12 -46 4 -88 11 -95 17 -8 7 -14 7 -19 -1 -7 -11 -52 -3 -72 13 -9 6 -13 6
-13 -3 0 -8 -16 -11 -52 -8 -39 2 -53 7 -53 18 0 12 19 16 98 18 123 3 129 22
6 22 -68 0 -90 3 -87 13 3 8 34 13 96 15 51 1 92 7 92 12 0 5 -39 11 -87 12
-82 3 -86 4 -63 17 14 8 63 18 110 22 l85 7 -95 -1 c-52 0 -95 3 -95 7 0 31
153 48 235 27z m-80 -217 c251 -21 234 -16 291 -93 46 -62 49 -70 49 -126 0
-33 -7 -114 -14 -179 l-15 -119 -59 -60 -60 -60 -164 11 c-89 7 -207 17 -262
24 l-99 11 -49 66 -49 66 6 110 c14 243 13 237 80 305 58 59 60 60 115 60 30
0 134 -7 230 -16z m-918 -40 c30 -15 32 -15 45 2 11 15 16 16 38 4 14 -7 25
-17 25 -22 0 -4 13 -8 28 -8 18 0 38 -10 53 -26 15 -16 30 -23 43 -20 16 4 76
-18 76 -28 0 -1 -28 3 -62 10 -35 7 -108 18 -163 24 -55 6 -131 17 -170 23
-60 10 -65 12 -32 15 29 3 37 7 37 23 0 24 38 26 82 3z m1263 -61 c47 -66 48
-68 46 -136 -1 -45 -7 -74 -16 -84 -17 -16 -20 -64 -6 -78 14 -15 -5 -124 -26
-147 -33 -37 -114 -101 -120 -95 -3 4 19 30 49 59 63 60 62 55 79 275 l11 142
-41 59 c-23 32 -41 61 -41 65 0 20 21 0 65 -60z m-914 -167 c-20 -21 -39 -32
-50 -29 -12 3 -27 -8 -45 -31 -15 -21 -36 -36 -47 -36 -12 0 -33 -8 -47 -19
-29 -19 -79 -32 -125 -32 -15 0 -40 -4 -55 -9 l-27 -10 28 25 c23 20 26 29 18
39 -9 11 -5 16 20 25 18 6 41 11 51 11 12 0 16 4 12 11 -10 16 15 29 58 29 20
0 38 5 40 12 2 6 23 12 46 12 24 1 46 6 50 12 10 15 31 22 71 23 l35 1 -33
-34z m1465 -206 c6 -6 23 -6 47 1 61 17 74 7 28 -21 -27 -17 -41 -32 -41 -47
0 -16 -9 -25 -35 -33 -19 -6 -35 -17 -35 -25 0 -15 -22 -25 -54 -25 -12 0 -27
-5 -33 -11 -6 -6 -22 -7 -38 -3 -27 7 -27 8 -9 21 19 15 144 76 177 87 9 3 17
10 17 16 0 22 -53 8 -137 -35 -48 -25 -89 -45 -90 -45 -2 0 1 9 7 20 6 11 19
20 30 20 11 0 29 13 41 29 12 16 28 27 35 24 7 -3 26 4 41 16 32 24 36 24 49
11z m-953 -161 c81 -6 149 -15 152 -18 2 -4 0 -13 -5 -21 -7 -11 -26 -14 -72
-12 -45 2 -59 0 -48 -8 8 -5 37 -10 63 -10 35 0 47 -4 44 -12 -3 -9 -25 -13
-71 -11 -87 2 -85 -14 4 -23 39 -3 70 -11 70 -17 0 -13 -247 -2 -284 13 -47
17 -31 33 27 27 35 -4 47 -3 37 3 -8 5 -28 10 -45 10 -29 1 -65 20 -65 35 0 4
30 5 68 2 l67 -6 -60 12 c-67 13 -85 22 -85 41 0 8 10 11 28 10 15 -2 93 -9
175 -15z"/>
<path d="M972 1319 c-5 -13 -12 -71 -16 -128 -3 -58 -9 -121 -12 -141 -10 -60
3 -65 183 -79 87 -7 199 -17 248 -22 50 -6 125 -13 167 -16 75 -6 77 -5 87 18
14 35 33 311 23 321 -14 14 -253 40 -579 64 -91 6 -93 6 -101 -17z m208 -9
c36 -5 139 -14 230 -20 91 -6 179 -15 195 -19 29 -6 30 -9 33 -69 2 -34 -2
-70 -8 -80 -9 -13 -10 -3 -5 44 7 78 -6 94 -75 94 -27 0 -93 4 -147 9 -54 6
-152 15 -218 21 -66 6 -129 14 -141 16 -12 3 -28 -2 -38 -11 -15 -15 -16 -15
-16 3 0 10 3 22 7 25 6 7 71 2 183 -13z"/>
</g>
</svg>
